<svg width="400" height="294" viewBox="0 0 400 294" fill="none" xmlns="http://www.w3.org/2000/svg">
<path d="M220.031 75.2336C220.031 75.2336 199.304 48.8269 212.328 32.2001C225.351 15.5732 250.506 45.9348 250.506 45.9348C250.506 45.9348 248.792 35.9583 262.685 38.6577C276.577 41.3572 279.856 58.2254 279.856 58.2254C279.856 58.2254 286.031 54.0799 291.432 63.7197C296.834 73.3575 284.524 99.8656 284.524 99.8656C284.524 99.8656 278.343 91.5724 271.454 99.6587C271.454 99.6587 253.132 96.5414 265.36 67.1899C265.36 67.1899 251.011 53.0212 223.709 57.7914L220.029 75.2336H220.031Z" fill="#1C2024"/>
<path d="M350.086 70.37H334.313V86.1288H350.086V70.37Z" fill="#F76B15"/>
<path d="M115.342 114.158C118.419 117.235 123.412 117.23 126.489 114.153C129.567 111.076 129.571 106.083 126.494 103.005C123.417 99.9283 118.423 99.933 115.346 103.01C112.269 106.087 112.265 111.081 115.342 114.158Z" fill="#E2A336"/>
<path d="M379.873 133.624L398.806 141.36L379.873 150.973V133.624Z" fill="#30A46C"/>
<path d="M124.539 267L102.931 210.71H183.676L205.574 267H124.539Z" fill="#DBEBFF"/>
<path d="M150.191 250.416C154.788 249.368 157.412 243.687 156.051 237.728C154.691 231.769 149.861 227.787 145.264 228.835C140.667 229.882 138.043 235.563 139.404 241.522C140.764 247.482 145.594 251.463 150.191 250.416Z" fill="#2977EA"/>
<path d="M372.1 266.292H26.5454C26.377 266.292 26.241 266.156 26.241 265.988C26.241 265.82 26.377 265.684 26.5454 265.684H372.1C372.268 265.684 372.404 265.82 372.404 265.988C372.404 266.156 372.268 266.292 372.1 266.292Z" fill="#60646C"/>
<path d="M122.962 170.074H114.666C114.498 170.074 114.362 169.939 114.362 169.77C114.362 169.602 114.498 169.466 114.666 169.466H122.962C123.131 169.466 123.267 169.602 123.267 169.77C123.267 169.939 123.131 170.074 122.962 170.074Z" fill="#60646C"/>
<path d="M118.815 173.835C118.647 173.835 118.511 173.699 118.511 173.53V165.627C118.511 165.458 118.647 165.322 118.815 165.322C118.984 165.322 119.12 165.458 119.12 165.627V173.53C119.12 173.699 118.984 173.835 118.815 173.835Z" fill="#60646C"/>
<path d="M179.722 52.0719H171.426C171.257 52.0719 171.121 51.9361 171.121 51.7677C171.121 51.5994 171.257 51.4635 171.426 51.4635H179.722C179.89 51.4635 180.026 51.5994 180.026 51.7677C180.026 51.9361 179.89 52.0719 179.722 52.0719Z" fill="#60646C"/>
<path d="M175.573 55.8302C175.404 55.8302 175.268 55.6943 175.268 55.526V47.6222C175.268 47.4539 175.404 47.318 175.573 47.318C175.741 47.318 175.877 47.4539 175.877 47.6222V55.526C175.877 55.6943 175.741 55.8302 175.573 55.8302Z" fill="#60646C"/>
<path d="M312.367 114.012H304.071C303.902 114.012 303.766 113.876 303.766 113.708C303.766 113.539 303.902 113.403 304.071 113.403H312.367C312.535 113.403 312.671 113.539 312.671 113.708C312.671 113.876 312.535 114.012 312.367 114.012Z" fill="#60646C"/>
<path d="M308.22 117.77C308.051 117.77 307.915 117.634 307.915 117.466V109.562C307.915 109.394 308.051 109.258 308.22 109.258C308.388 109.258 308.524 109.394 308.524 109.562V117.466C308.524 117.634 308.388 117.77 308.22 117.77Z" fill="#60646C"/>
<path d="M55.6866 266.292C41.1567 266.292 29.3347 254.48 29.3347 239.963V230.203C29.3347 230.035 29.4707 229.899 29.6392 229.899H81.732C81.9005 229.899 82.0365 230.035 82.0365 230.203V239.963C82.0365 254.48 70.2145 266.292 55.6846 266.292H55.6866ZM29.9437 230.509V239.965C29.9437 254.148 41.4917 265.686 55.6866 265.686C69.8816 265.686 81.4295 254.148 81.4295 239.965V230.509H29.9457H29.9437Z" fill="#60646C"/>
<path d="M74.136 235.641H32.3164C32.148 235.641 32.012 235.505 32.012 235.336C32.012 235.168 32.148 235.032 32.3164 235.032H74.136C74.3045 235.032 74.4405 235.168 74.4405 235.336C74.4405 235.505 74.3045 235.641 74.136 235.641Z" fill="#60646C"/>
<path d="M81.7317 240.269H49.1014C48.9329 240.269 48.7969 240.133 48.7969 239.965C48.7969 239.796 48.9329 239.661 49.1014 239.661H81.7317C81.9002 239.661 82.0362 239.796 82.0362 239.965C82.0362 240.133 81.9002 240.269 81.7317 240.269Z" fill="#60646C"/>
<path d="M50.404 230.509C50.272 230.509 50.1523 230.424 50.1117 230.292C50.0812 230.189 46.9775 219.718 45.0431 207.587C42.4367 191.254 43.068 179.852 46.9227 173.699C48.6928 170.873 51.1611 169.184 54.2607 168.675C57.1777 168.196 59.6785 168.965 61.6962 170.963C66.4603 175.678 68.5836 187.101 68.0051 204.91C67.5768 218.129 65.7356 230.132 65.7174 230.252C65.691 230.418 65.5367 230.532 65.3703 230.505C65.2038 230.479 65.0901 230.325 65.1165 230.159C65.1348 230.039 66.9698 218.069 67.3981 204.884C67.9624 187.5 65.8432 175.919 61.2699 171.393C59.3984 169.541 57.0742 168.827 54.3622 169.273C51.4412 169.752 49.113 171.35 47.4403 174.019C43.7196 179.96 43.0984 191.534 45.6459 207.49C47.5763 219.582 50.6658 230.012 50.6983 230.116C50.747 230.276 50.6536 230.447 50.4933 230.495C50.4649 230.503 50.4344 230.507 50.406 230.507L50.404 230.509Z" fill="#60646C"/>
<path d="M45.1941 230.509C45.0986 230.509 45.0053 230.465 44.9464 230.382C44.8794 230.288 38.2762 221.028 33.0818 210.496C30.0248 204.297 28.0477 198.874 27.2012 194.376C26.1315 188.685 26.8764 184.446 29.4178 181.777C31.6872 179.392 33.9445 178.438 36.1205 178.943C41.1972 180.12 43.9721 188.756 44.0878 189.123C44.1385 189.283 44.0492 189.453 43.8888 189.504C43.7285 189.555 43.558 189.466 43.5072 189.305C43.4808 189.218 40.7202 180.633 35.9825 179.536C34.0317 179.083 31.9694 179.98 29.8603 182.197C24.3878 187.944 28.888 200.608 33.6278 210.22C38.7999 220.709 45.3788 229.935 45.4437 230.027C45.5412 230.163 45.5107 230.353 45.3727 230.451C45.3199 230.489 45.257 230.507 45.1961 230.507L45.1941 230.509Z" fill="#60646C"/>
<path d="M32.3165 230.509C32.2536 230.509 32.1907 230.491 32.1379 230.451C32.0993 230.422 28.2365 227.585 24.806 223.733C20.1494 218.503 18.4585 213.99 19.7779 210.319C20.4032 208.583 21.4445 207.547 22.8776 207.238C27.7351 206.188 35.3837 213.986 35.7064 214.319C35.8241 214.438 35.8201 214.631 35.7003 214.749C35.5806 214.866 35.3877 214.862 35.27 214.743C35.1929 214.663 27.5341 206.853 23.0055 207.835C21.7936 208.096 20.9005 209.003 20.3504 210.528C17.3746 218.797 32.3429 229.852 32.4951 229.964C32.6312 230.063 32.6596 230.254 32.5621 230.39C32.5033 230.471 32.4099 230.514 32.3165 230.514V230.509Z" fill="#60646C"/>
<path d="M70.8068 230.509C70.7317 230.509 70.6545 230.481 70.5957 230.424C70.4739 230.307 70.4719 230.116 70.5876 229.994C73.3583 227.118 77.1644 218.332 79.8418 208.628C82.9637 197.319 83.7838 187.707 82.0949 182.26C81.1774 179.303 79.5332 177.558 77.207 177.08C70.7966 175.759 67.4879 187.263 67.4555 187.379C67.4108 187.541 67.2423 187.634 67.0799 187.59C66.9175 187.545 66.8242 187.377 66.8688 187.214C67.0089 186.717 70.3663 175.045 77.3288 176.483C79.8885 177.011 81.6869 178.893 82.6755 182.079C86.5465 194.564 76.7178 224.506 71.024 230.416C70.9651 230.479 70.8839 230.509 70.8048 230.509H70.8068Z" fill="#60646C"/>
<path d="M80.7437 230.509C80.6646 230.509 80.5854 230.479 80.5265 230.418C80.4088 230.299 80.4108 230.106 80.5306 229.988C80.6483 229.873 92.3688 218.312 92.2044 210.621C92.1679 208.942 91.5549 207.557 90.3816 206.504C89.0622 205.32 87.692 204.8 86.3137 204.965C84.2859 205.202 82.1991 206.857 80.1063 209.883C80.0109 210.021 79.8201 210.055 79.6821 209.96C79.5441 209.865 79.5096 209.674 79.605 209.536C81.8013 206.36 84.0342 204.618 86.2427 204.358C87.8036 204.174 89.3342 204.744 90.7896 206.05C92.0928 207.22 92.7748 208.753 92.8134 210.607C92.9839 218.562 81.4481 229.942 80.9569 230.422C80.898 230.481 80.8209 230.509 80.7437 230.509Z" fill="#60646C"/>
<path d="M226.509 94.9006C228.054 94.9006 229.306 93.6494 229.306 92.1058C229.306 90.5623 228.054 89.311 226.509 89.311C224.964 89.311 223.712 90.5623 223.712 92.1058C223.712 93.6494 224.964 94.9006 226.509 94.9006Z" fill="#1C2024"/>
<path d="M247.708 94.9006C249.253 94.9006 250.505 93.6494 250.505 92.1058C250.505 90.5623 249.253 89.311 247.708 89.311C246.163 89.311 244.911 90.5623 244.911 92.1058C244.911 93.6494 246.163 94.9006 247.708 94.9006Z" fill="#1C2024"/>
<path d="M234.622 110.503C233.656 110.503 232.873 110.209 232.284 109.619C227.879 105.21 236.358 85.4738 236.721 84.6362C236.788 84.482 236.967 84.411 237.121 84.478C237.275 84.5449 237.346 84.7234 237.279 84.8775C237.192 85.0783 228.6 105.07 232.714 109.189C233.676 110.152 235.345 110.13 237.675 109.128C237.83 109.061 238.008 109.132 238.075 109.286C238.142 109.441 238.071 109.619 237.917 109.686C236.652 110.23 235.552 110.503 234.622 110.503Z" fill="#60646C"/>
<path d="M245.249 116.434C245.17 116.434 245.093 116.403 245.032 116.344C244.914 116.225 244.914 116.032 245.034 115.914C247.482 113.493 248.529 111.39 248.148 109.659C247.715 107.694 245.527 106.883 245.505 106.875C245.346 106.818 245.265 106.644 245.322 106.485C245.379 106.327 245.555 106.246 245.712 106.303C245.815 106.339 248.237 107.24 248.742 109.528C249.171 111.475 248.066 113.769 245.462 116.346C245.403 116.405 245.326 116.434 245.247 116.434H245.249Z" fill="#60646C"/>
<path d="M221.444 80.5778C221.361 80.5778 221.278 80.5433 221.217 80.4764C221.105 80.3506 221.115 80.16 221.241 80.0464C221.408 79.8983 225.386 76.416 231.37 77.5883C231.535 77.6207 231.642 77.7809 231.61 77.9452C231.577 78.1095 231.417 78.217 231.252 78.1845C225.575 77.0731 221.686 80.4642 221.647 80.4987C221.588 80.5494 221.517 80.5757 221.444 80.5757V80.5778Z" fill="#60646C"/>
<path d="M255.087 84.2651C254.99 84.2651 254.894 84.2184 254.835 84.1312C251.139 78.6957 245.865 78.4118 245.813 78.4077C245.644 78.4017 245.514 78.2597 245.52 78.0913C245.526 77.923 245.67 77.7952 245.837 77.7993C246.064 77.8074 251.462 78.0873 255.337 83.7884C255.432 83.9284 255.396 84.117 255.256 84.2103C255.203 84.2468 255.144 84.263 255.085 84.263L255.087 84.2651Z" fill="#60646C"/>
<path d="M235.682 133.381C231.669 133.381 228.263 132.048 225.49 129.383C217.279 121.494 216.887 103.867 217.384 94.061C218.133 79.2716 221.458 65.5714 224.355 59.6796C224.394 59.6026 224.461 59.5458 224.542 59.5214C224.588 59.5072 229.306 58.1544 236.674 58.3978C243.466 58.6209 253.985 60.282 265.513 66.9242C265.655 67.0053 265.706 67.1838 265.631 67.3278C265.537 67.5063 256.326 85.3703 261.461 94.3064C263.252 97.4216 266.619 99.1192 271.469 99.3504C271.637 99.3585 271.767 99.5005 271.759 99.6688C271.751 99.8372 271.605 99.969 271.44 99.9589C266.367 99.7175 262.833 97.9165 260.933 94.6086C258.701 90.7226 258.727 84.8957 261.009 77.2901C262.468 72.4246 264.435 68.3541 264.959 67.3075C253.648 60.856 243.351 59.2294 236.683 59.0063C230.069 58.7852 225.634 59.8601 224.84 60.069C221.984 65.971 218.73 79.4846 217.989 94.0894C217.498 103.79 217.872 121.22 225.91 128.941C231.443 134.259 239.671 134.026 250.36 128.248C250.508 128.169 250.693 128.223 250.772 128.371C250.851 128.519 250.796 128.704 250.648 128.783C244.983 131.846 239.983 133.377 235.68 133.377L235.682 133.381Z" fill="#60646C"/>
<path d="M253.784 155.35C253.36 155.35 252.936 155.338 252.509 155.311C242.161 154.693 235.126 146.602 235.056 146.521C235.014 146.471 234.987 146.408 234.983 146.341L234.251 133.052C234.242 132.884 234.37 132.742 234.539 132.732C234.711 132.72 234.851 132.852 234.86 133.02L235.586 146.203C236.321 147.018 242.995 154.137 252.552 154.705C259.011 155.088 265.383 152.45 271.497 146.86V111.361C271.497 111.252 271.556 111.15 271.651 111.095C271.747 111.041 271.864 111.043 271.958 111.1C272.191 111.241 277.723 114.495 282.34 108.641C284.929 105.362 284.793 99.2064 282.081 96.8821C279.33 94.5234 274.688 96.4501 269.343 102.172C269.227 102.295 269.035 102.301 268.913 102.186C268.789 102.07 268.783 101.879 268.899 101.756C276.561 93.5539 280.694 94.8925 282.476 96.4197C285.456 98.9752 285.631 105.451 282.818 109.019C278.648 114.302 273.63 112.566 272.102 111.858V146.994C272.102 147.079 272.065 147.16 272.004 147.217C266.132 152.618 260.008 155.35 253.782 155.35H253.784Z" fill="#60646C"/>
<path d="M272.766 106.891C272.701 106.891 272.636 106.871 272.579 106.828C272.447 106.725 272.421 106.534 272.524 106.402C272.636 106.258 275.327 102.849 281.979 101.829C282.146 101.802 282.3 101.918 282.326 102.084C282.353 102.251 282.237 102.405 282.073 102.431C275.679 103.411 273.032 106.741 273.007 106.773C272.946 106.851 272.857 106.891 272.766 106.891Z" fill="#60646C"/>
<path d="M284.433 101.512C284.393 101.512 284.352 101.504 284.311 101.486C284.157 101.419 284.088 101.239 284.155 101.085C284.289 100.778 297.473 70.3924 291.087 61.29C284.77 52.287 278.684 56.1243 278.626 56.1648C278.546 56.2176 278.447 56.2297 278.356 56.1973C278.266 56.1648 278.195 56.0939 278.167 56.0026C278.153 55.9559 276.638 51.206 273.626 46.523C270.871 42.2395 266.26 37.1306 259.934 37.1306C255.298 37.1306 252.036 38.1751 250.242 40.2377C248.535 42.1989 248.825 44.4238 248.829 44.4461C248.847 44.578 248.778 44.7057 248.659 44.7625C248.539 44.8193 248.397 44.793 248.305 44.6976C248.149 44.5313 232.515 28.1255 219.363 28.1255C219.296 28.1255 219.231 28.1255 219.164 28.1255C215.241 28.1742 211.897 29.7116 209.224 32.6909C202.235 40.4811 205.467 52.1957 209.407 60.6511C213.704 69.8732 219.759 77.3307 219.818 77.4037C219.924 77.5335 219.905 77.7262 219.775 77.8317C219.645 77.9371 219.453 77.9189 219.347 77.7891C219.286 77.714 213.19 70.2058 208.859 60.9168C206.309 55.4469 204.858 50.4353 204.547 46.022C204.155 40.4649 205.576 35.8427 208.769 32.2833C211.56 29.1721 215.056 27.5678 219.156 27.5171C219.223 27.5171 219.292 27.5171 219.359 27.5171C226.352 27.5171 233.932 32.0358 239.08 35.8467C243.494 39.1161 246.921 42.4322 248.202 43.7201C248.246 42.8114 248.531 41.2802 249.771 39.8463C251.683 37.6376 255.103 36.5201 259.932 36.5201C265.159 36.5201 270.074 39.8686 274.144 46.2025C276.72 50.2102 278.214 54.2665 278.626 55.4651C279.231 55.1589 280.603 54.5991 282.45 54.7025C284.707 54.8263 288.123 56.0107 291.582 60.9412C294.357 64.8981 294.038 72.9093 290.634 84.7518C288.113 93.5235 284.744 101.253 284.709 101.33C284.658 101.443 284.547 101.512 284.429 101.512H284.433Z" fill="#60646C"/>
<path d="M121.834 266.292C121.712 266.292 121.596 266.219 121.549 266.1L98.5955 207.555C98.5589 207.461 98.5711 207.356 98.628 207.273C98.6848 207.19 98.7782 207.141 98.8797 207.141H180.783C180.909 207.141 181.021 207.218 181.067 207.336L203.93 265.881C203.991 266.037 203.914 266.213 203.757 266.274C203.601 266.335 203.425 266.258 203.364 266.102L180.576 207.749H99.3283L122.12 265.879C122.181 266.035 122.104 266.211 121.947 266.272C121.911 266.286 121.874 266.292 121.836 266.292H121.834Z" fill="#60646C"/>
<path d="M149.284 249.757C147.948 249.757 146.554 249.4 145.177 248.69C142.725 247.424 140.622 245.185 139.26 242.382C136.431 236.568 137.695 230.104 142.08 227.974C146.464 225.843 152.335 228.84 155.164 234.655C157.994 240.47 156.73 246.933 152.345 249.063C151.393 249.525 150.358 249.757 149.286 249.757H149.284ZM145.131 227.891C144.165 227.891 143.223 228.094 142.346 228.52C138.264 230.503 137.125 236.602 139.808 242.117C141.116 244.802 143.121 246.944 145.458 248.15C147.764 249.341 150.116 249.471 152.077 248.517C156.159 246.534 157.298 240.435 154.614 234.921C152.507 230.593 148.661 227.891 145.129 227.891H145.131Z" fill="#60646C"/>
<path d="M196.006 246.731C195.916 246.731 195.827 246.69 195.766 246.615C195.663 246.483 195.685 246.293 195.817 246.187C195.925 246.102 206.636 237.782 217.043 238.214C226.941 238.626 238.907 245.132 240.095 245.792L302.865 235.47C303.029 235.442 303.187 235.555 303.214 235.722C303.24 235.888 303.129 236.044 302.962 236.071L240.089 246.408C240.02 246.418 239.949 246.408 239.888 246.372C239.762 246.301 227.242 239.247 217.017 238.821C206.825 238.399 196.298 246.583 196.195 246.664C196.14 246.708 196.073 246.729 196.006 246.729V246.731Z" fill="#60646C"/>
<path d="M198.023 251.898C197.932 251.898 197.841 251.858 197.78 251.779C197.678 251.645 197.705 251.454 197.839 251.353C198.121 251.138 204.821 246.1 211.116 245.015C211.28 244.986 211.439 245.098 211.467 245.262C211.496 245.427 211.384 245.585 211.22 245.613C205.073 246.672 198.273 251.785 198.206 251.835C198.151 251.878 198.086 251.896 198.021 251.896L198.023 251.898Z" fill="#60646C"/>
<path d="M200.011 256.987C199.918 256.987 199.826 256.944 199.767 256.865C199.666 256.732 199.694 256.541 199.83 256.439C199.901 256.387 207.079 251.085 214.441 249.643C214.608 249.611 214.766 249.718 214.799 249.882C214.831 250.047 214.724 250.207 214.559 250.239C207.331 251.655 200.265 256.874 200.196 256.926C200.141 256.967 200.078 256.987 200.013 256.987H200.011Z" fill="#60646C"/>
<path d="M288.877 266.292C288.877 266.292 288.862 266.292 288.856 266.292C275.999 265.455 242.977 260.946 241.091 260.686C234.89 263.232 227.858 261.725 223.041 260.007C218.223 258.289 214.601 256.022 214.043 255.665C214.007 255.665 213.968 255.665 213.929 255.665C209.153 255.665 201.697 260.579 201.62 260.63C201.48 260.723 201.291 260.684 201.198 260.544C201.105 260.405 201.143 260.216 201.283 260.123C201.604 259.91 209.188 254.904 214.145 255.06C214.201 255.06 214.256 255.079 214.303 255.111C214.453 255.21 229.356 264.917 240.933 260.096C240.984 260.076 241.038 260.068 241.091 260.076C241.436 260.123 275.745 264.832 288.895 265.688C289.063 265.698 289.189 265.844 289.179 266.01C289.169 266.171 289.035 266.294 288.875 266.294L288.877 266.292Z" fill="#60646C"/>
<path d="M298.711 236.766C298.563 236.766 298.433 236.659 298.411 236.507C296.263 222.344 285.653 184.76 285.546 184.383C285.499 184.221 285.594 184.052 285.757 184.008C285.919 183.961 286.088 184.056 286.132 184.219C286.24 184.598 296.86 222.218 299.014 236.417C299.038 236.584 298.924 236.738 298.758 236.764C298.742 236.766 298.728 236.768 298.711 236.768V236.766Z" fill="#60646C"/>
<path d="M295.003 219.304C294.857 219.304 294.729 219.198 294.703 219.05C294.674 218.884 294.786 218.728 294.952 218.7C302.93 217.341 332.879 209.151 335.999 208.295C335.731 206.555 334.127 196.524 330.971 185.334C326.409 169.154 320.693 157.903 314.441 152.801C299.282 140.429 272.051 138.214 271.779 138.194C271.611 138.182 271.487 138.036 271.499 137.867C271.511 137.699 271.659 137.575 271.826 137.587C271.895 137.593 278.807 138.137 287.511 140.216C295.553 142.137 306.823 145.797 314.829 152.33C321.27 157.587 326.899 168.638 331.561 185.176C335.026 197.469 336.628 208.366 336.644 208.476C336.666 208.628 336.571 208.772 336.423 208.812C336.094 208.904 303.464 217.87 295.056 219.3C295.04 219.302 295.021 219.304 295.005 219.304H295.003Z" fill="#60646C"/>
<path d="M328.307 266.292C328.157 266.292 328.025 266.181 328.005 266.029C327.983 265.862 328.1 265.708 328.267 265.688C328.303 265.682 330.102 265.422 332.101 263.994C333.955 262.67 336.368 260.035 337.342 255.014C339.238 245.232 333.238 209.711 333.177 209.352C333.149 209.185 333.26 209.029 333.427 209.001C333.591 208.972 333.749 209.084 333.778 209.25C334.028 210.715 339.859 245.24 337.941 255.129C335.993 265.177 328.425 266.282 328.348 266.292C328.334 266.292 328.322 266.294 328.307 266.294V266.292Z" fill="#60646C"/>
<path d="M238.553 245.617C238.44 245.617 238.33 245.552 238.277 245.443C238.123 245.116 222.761 212.503 217.244 191.895C217.201 191.733 217.297 191.567 217.459 191.522C217.621 191.48 217.788 191.575 217.832 191.737C223.335 212.292 238.673 244.855 238.827 245.181C238.899 245.333 238.834 245.514 238.681 245.587C238.639 245.607 238.596 245.615 238.551 245.615L238.553 245.617Z" fill="#60646C"/>
<path d="M218.02 219.304C217.992 219.304 217.961 219.3 217.933 219.292C212.834 217.754 191.78 203.521 190.887 202.914C190.769 202.833 190.722 202.683 190.775 202.549C190.895 202.249 202.887 172.297 210.909 158.842C215.134 151.758 221.461 147.576 226.024 145.315C230.965 142.867 234.972 142.08 235.012 142.072C235.177 142.041 235.337 142.149 235.369 142.313C235.402 142.477 235.292 142.637 235.128 142.67C234.972 142.7 219.37 145.842 211.433 159.153C203.805 171.946 192.559 199.74 191.431 202.545C193.625 204.024 212.781 216.886 217.888 218.635C218.68 217.383 222.76 210.944 223.484 210.171C223.6 210.047 223.793 210.041 223.915 210.157C224.037 210.272 224.045 210.465 223.929 210.587C223.332 211.224 219.971 216.473 218.276 219.16C218.219 219.249 218.122 219.302 218.018 219.302L218.02 219.304Z" fill="#60646C"/>
<path d="M185.294 219.304C185.253 219.304 185.21 219.296 185.172 219.278C185.018 219.211 184.949 219.03 185.016 218.876L191.875 203.277C191.942 203.123 192.122 203.052 192.276 203.121C192.431 203.188 192.5 203.369 192.433 203.523L185.574 219.121C185.523 219.235 185.411 219.304 185.296 219.304H185.294Z" fill="#60646C"/>
<path d="M206.42 240.886C206.379 240.886 206.336 240.877 206.296 240.859C206.142 240.79 206.075 240.61 206.142 240.458L216.098 218.213C216.167 218.059 216.346 217.99 216.5 218.059C216.654 218.128 216.721 218.308 216.654 218.46L206.698 240.705C206.647 240.819 206.535 240.886 206.42 240.886Z" fill="#60646C"/>
<path d="M243.294 266.292C243.133 266.292 242.997 266.166 242.989 266.004C242.849 263.207 241.722 260.652 241.712 260.628C241.643 260.473 241.712 260.295 241.867 260.226C242.021 260.157 242.199 260.226 242.269 260.38C242.317 260.488 243.452 263.059 243.598 265.974C243.606 266.142 243.476 266.284 243.31 266.292C243.304 266.292 243.3 266.292 243.294 266.292Z" fill="#60646C"/>
<path d="M346.108 266.292H346.103C345.935 266.29 345.801 266.152 345.803 265.984C345.819 264.948 347.261 162.256 341.924 150.74C336.652 139.362 297.981 143.733 297.591 143.777C297.427 143.797 297.273 143.678 297.254 143.509C297.234 143.343 297.354 143.191 297.522 143.173C297.62 143.161 307.469 142.029 317.854 142.347C331.89 142.775 340.174 145.513 342.478 150.484C347.872 162.124 346.475 261.757 346.414 265.992C346.412 266.158 346.276 266.292 346.11 266.292H346.108Z" fill="#60646C"/>
<path d="M357.34 266.292H357.336C357.168 266.29 357.034 266.152 357.036 265.984C357.052 264.948 358.493 162.258 353.159 150.74C349.582 143.021 330.501 142.587 319.444 143.017C319.272 143.025 319.134 142.893 319.128 142.725C319.122 142.556 319.251 142.416 319.42 142.408C324.893 142.195 332.844 142.175 339.646 143.282C347.343 144.534 352.075 146.957 353.711 150.484C359.104 162.126 357.706 261.757 357.645 265.992C357.643 266.158 357.507 266.292 357.34 266.292Z" fill="#60646C"/>
<path d="M347.12 83.541H331.131C330.962 83.541 330.826 83.4051 330.826 83.2368V68.127C330.826 67.9586 330.962 67.8228 331.131 67.8228H347.12C347.288 67.8228 347.424 67.9586 347.424 68.127V83.2368C347.424 83.4051 347.288 83.541 347.12 83.541ZM331.435 82.9325H346.816V68.4312H331.435V82.9325Z" fill="#60646C"/>
<path d="M111.757 104.389L112.378 103.767C115.063 101.082 119.417 101.082 122.102 103.767C124.787 106.452 124.787 110.806 122.102 113.491L121.48 114.112C118.795 116.797 114.442 116.798 111.757 114.113C109.072 111.428 109.072 107.074 111.757 104.389Z" stroke="#60646C" stroke-width="0.75"/>
<path d="M378.258 149.326C378.201 149.326 378.144 149.31 378.093 149.278C378.006 149.221 377.953 149.126 377.953 149.022V129.937C377.953 129.834 378.006 129.736 378.093 129.682C378.18 129.627 378.29 129.619 378.385 129.661L398.934 139.204C399.042 139.254 399.111 139.362 399.111 139.48C399.111 139.597 399.042 139.705 398.934 139.755L378.385 149.298C378.345 149.316 378.3 149.326 378.258 149.326ZM378.562 130.414V148.545L398.083 139.48L378.562 130.414Z" fill="#60646C"/>
</svg>
